<svg xmlns="http://www.w3.org/2000/svg" width="800" height="600" viewBox="0 0 800 600">
    <rect width="100%" height="100%" fill="#222" />
    <path d="M200,500 Q400,300 600,500 L800,500 L800,600 L0,600 L0,500 Z" fill="#444" stroke="#111" stroke-width="2" />
    <text x="400" y="550" font-family="Arial" font-size="30" fill="white" font-weight="bold" text-anchor="middle">STAGE</text>
    
    <path d="M50,100 L350,100 L300,250 L100,250 Z" fill="#e50914" stroke="#333" stroke-width="3" />
    <text x="200" y="180" font-family="Arial" font-size="20" fill="white" font-weight="bold" text-anchor="middle">VIP LEFT</text>

    <path d="M450,100 L750,100 L700,250 L500,250 Z" fill="#e50914" stroke="#333" stroke-width="3" />
    <text x="600" y="180" font-family="Arial" font-size="20" fill="white" font-weight="bold" text-anchor="middle">VIP RIGHT</text>

    <path d="M320,150 L480,150 L460,350 L340,350 Z" fill="#f8b400" stroke="#333" stroke-width="3" />
    <text x="400" y="270" font-family="Arial" font-size="20" fill="white" font-weight="bold" text-anchor="middle">GOLD</text>
    
    <path d="M120,300 L680,300 L720,400 L80,400 Z" fill="#007bff" stroke="#333" stroke-width="3" />
    <text x="400" y="360" font-family="Arial" font-size="20" fill="white" font-weight="bold" text-anchor="middle">GENERAL X</text>
</svg>
