<?xml version="1.0" encoding="UTF-8"?>
<svg id="Layer_1_copy" data-name="Layer 1 copy" xmlns="http://www.w3.org/2000/svg" width="800" height="600" viewBox="0 0 800 600">
  <rect width="800" height="600" style="fill: #aeaeb1;"/>
  <path d="M402.84,93.21c-106,0-191.94,85.93-191.94,191.94s85.93,191.94,191.94,191.94,191.94-85.93,191.94-191.94-85.93-191.94-191.94-191.94ZM402.84,440.04c-85.55,0-154.9-69.35-154.9-154.9s69.35-154.9,154.9-154.9,154.9,69.35,154.9,154.9-69.35,154.9-154.9,154.9Z" style="fill: #394f98; stroke: #0b090b;"/>
  <path d="M402.84,160.49c-68.85,0-124.66,55.81-124.66,124.66s55.81,124.66,124.66,124.66,124.66-55.81,124.66-124.66-55.81-124.66-124.66-124.66ZM402.84,375.02c-49.63,0-89.87-40.24-89.87-89.87s40.24-89.87,89.87-89.87,89.87,40.24,89.87,89.87-40.24,89.87-89.87,89.87Z" style="fill: #7085bc; stroke: #080609;"/>
</svg>