<svg width="614" height="660" xmlns="http://www.w3.org/2000/svg" xmlns:xlink="http://www.w3.org/1999/xlink" xml:space="preserve" overflow="hidden"><g transform="translate(-2314 -765)"><g><path d="M2319.5 1073C2319.5 906.486 2454.26 771.5 2620.5 771.5 2786.74 771.5 2921.5 906.486 2921.5 1073L2771 1073C2771 989.605 2703.62 922 2620.5 922 2537.38 922 2470 989.605 2470 1073Z" stroke="#042433" stroke-width="6.875" stroke-linecap="butt" stroke-linejoin="miter" stroke-miterlimit="8" stroke-opacity="1" fill="#156082" fill-rule="evenodd" fill-opacity="1"/><path d="M2921.5 1119.5C2921.5 1285.74 2786.74 1420.5 2620.5 1420.5 2454.26 1420.5 2319.5 1285.74 2319.5 1119.5L2470 1119.5C2470 1202.62 2537.38 1270 2620.5 1270 2703.62 1270 2771 1202.62 2771 1119.5Z" stroke="#042433" stroke-width="6.875" stroke-linecap="butt" stroke-linejoin="miter" stroke-miterlimit="8" stroke-opacity="1" fill="#156082" fill-rule="evenodd" fill-opacity="1"/></g></g></svg>