<?xml version="1.0" encoding="UTF-8"?>
<svg xmlns="http://www.w3.org/2000/svg" viewBox="0 0 383.87 383.87">
  <defs>
    <style>
      .cls-1 {
        fill: #7085bc;
      }

      .cls-2 {
        fill: #394f98;
      }
    </style>
  </defs>
  <g id="Layer_1" data-name="Layer 1">
    <path class="cls-1" d="M191.94,67.28c-68.85,0-124.66,55.81-124.66,124.66s55.81,124.66,124.66,124.66,124.66-55.81,124.66-124.66-55.81-124.66-124.66-124.66ZM191.94,281.81c-49.63,0-89.87-40.24-89.87-89.87s40.24-89.87,89.87-89.87,89.87,40.24,89.87,89.87-40.24,89.87-89.87,89.87Z"/>
  </g>
  <g id="Layer_1_copy" data-name="Layer 1 copy">
    <path class="cls-2" d="M191.94,0C85.93,0,0,85.93,0,191.94s85.93,191.94,191.94,191.94,191.94-85.93,191.94-191.94S297.94,0,191.94,0ZM191.94,346.83c-85.55,0-154.9-69.35-154.9-154.9S106.39,37.04,191.94,37.04s154.9,69.35,154.9,154.9-69.35,154.9-154.9,154.9Z"/>
  </g>
</svg>