<svg width="1874" height="1948" xmlns="http://www.w3.org/2000/svg" xmlns:xlink="http://www.w3.org/1999/xlink" xml:space="preserve" overflow="hidden"><g transform="translate(-1361 -311)"><g><path d="M1368.5 1245.5C1368.5 732.428 1784.43 316.5 2297.5 316.5 2808.39 316.5 3223.41 729.024 3226.48 1239.9L3018.15 1241.16C3015.75 843.155 2691.16 522.453 2293.16 524.851 1896.85 527.238 1576.84 849.183 1576.84 1245.5Z" stroke="#042433" stroke-width="6.875" stroke-linecap="butt" stroke-linejoin="miter" stroke-miterlimit="8" stroke-opacity="1" fill="#156082" fill-rule="evenodd" fill-opacity="1"/><path d="M1683.5 1285.5C1683.5 940.874 1962.87 661.5 2307.5 661.5 2652.13 661.5 2931.5 940.874 2931.5 1285.5 2931.5 1630.13 2652.13 1909.5 2307.5 1909.5 1962.87 1909.5 1683.5 1630.13 1683.5 1285.5ZM1838.83 1285.5C1838.83 1544.34 2048.66 1754.17 2307.5 1754.17 2566.34 1754.17 2776.17 1544.34 2776.17 1285.5 2776.17 1026.66 2566.34 816.826 2307.5 816.826 2048.66 816.826 1838.83 1026.66 1838.83 1285.5Z" stroke="#042433" stroke-width="6.875" stroke-linecap="butt" stroke-linejoin="miter" stroke-miterlimit="8" stroke-opacity="1" fill="#156082" fill-rule="evenodd" fill-opacity="1"/><path d="M3230.5 1326.5C3230.5 1839.57 2814.57 2255.5 2301.5 2255.5 1790.61 2255.5 1375.59 1842.98 1372.52 1332.1L1580.85 1330.84C1583.25 1728.85 1907.84 2049.55 2305.84 2047.15 2702.15 2044.76 3022.16 1722.82 3022.16 1326.5Z" stroke="#042433" stroke-width="6.875" stroke-linecap="butt" stroke-linejoin="miter" stroke-miterlimit="8" stroke-opacity="1" fill="#156082" fill-rule="evenodd" fill-opacity="1"/><path d="M2361 934.5C2543.53 934.5 2691.5 1082.69 2691.5 1265.5 2691.5 1447.53 2544.74 1595.4 2362.99 1596.49L2362.55 1522.38C2504.14 1521.52 2618.23 1405.82 2617.38 1263.95 2616.53 1122.69 2501.99 1008.62 2361 1008.62Z" stroke="#042433" stroke-width="6.875" stroke-linecap="butt" stroke-linejoin="miter" stroke-miterlimit="8" stroke-opacity="1" fill="#156082" fill-rule="evenodd" fill-opacity="1"/><path d="M2281 1596.5C2098.47 1596.5 1950.5 1448.31 1950.5 1265.5 1950.5 1083.47 2097.26 935.605 2279.01 934.506L2279.45 1008.62C2137.86 1009.48 2023.77 1125.18 2024.62 1267.05 2025.47 1408.31 2140.01 1522.38 2281 1522.38Z" stroke="#042433" stroke-width="6.875" stroke-linecap="butt" stroke-linejoin="miter" stroke-miterlimit="8" stroke-opacity="1" fill="#156082" fill-rule="evenodd" fill-opacity="1"/></g></g></svg>